<?xml version="1.0" encoding="UTF-8"?>
<svg xmlns="http://www.w3.org/2000/svg" viewBox="0 0 1024 1024" width="25" height="25">
  <path
    d="M512.649 512.632m-447.382 0a447.382 447.382 0 1 0 894.764 0 447.382 447.382 0 1 0-894.764 0Z"
    fill="#E0995E"></path>
  <path d="M736.34 428.748V316.902H288.958v447.382H736.34z"
        fill="#231F20"></path>
  <path
    d="M736.34 260.979H288.958c-30.886 0-55.923 25.037-55.923 55.923V764.284c0 30.885 25.037 55.923 55.923 55.923H736.34c30.886 0 55.923-25.038 55.923-55.923V316.902c0-30.886-25.037-55.923-55.923-55.923z"
    fill="#231F20"></path>
  <path
    d="M288.958 764.284c-15.421 0-27.961-12.547-27.961-27.961V288.941c0-15.414 12.54-27.961 27.961-27.961H736.34c15.421 0 27.961 12.547 27.961 27.961v447.382c0 15.414-12.54 27.961-27.961 27.961H288.958z"
    fill="#77B3D4"></path>
  <path
    d="M736.34 288.941v447.383H288.958V288.941H736.34m0-55.923H288.958c-30.886 0-55.923 25.037-55.923 55.923v447.383c0 30.885 25.037 55.923 55.923 55.923H736.34c30.886 0 55.923-25.038 55.923-55.923V288.941c0-30.886-25.037-55.923-55.923-55.923z"
    fill="#FFFFFF"></path>
  <path d="M288.958 680.4H736.34v55.923H288.958z" fill="#FFFFFF"></path>
  <path
    d="M260.851 680.4h487.868v-40.837s-23.845-41.624-45.947-67.706c-16.44-19.4-40.989-24.891-62.407-1.059l-38.481 36.957-83.869-106.652c-31.234-39.718-82.344-39.718-113.578 0L260.851 680.4z"
    fill="#4F5D73"></path>
  <path
    d="M624.495 400.786m-41.942 0a41.942 41.942 0 1 0 83.884 0 41.942 41.942 0 1 0-83.884 0Z"
    fill="#F5CF87"></path>
  <path
    d="M736.34 288.941v447.383H288.958V288.941H736.34m0-55.923H288.958c-30.886 0-55.923 25.037-55.923 55.923v447.383c0 30.885 25.037 55.923 55.923 55.923H736.34c30.886 0 55.923-25.038 55.923-55.923V288.941c0-30.886-25.037-55.923-55.923-55.923z"
    fill="#FFFFFF"></path>
</svg>
